# xmcd
#
# Track frame offsets: 
#        150
#        14534
#        28124
#        43711
#        65262
#        79142
#        97254
#        116054
#        134827
#        152122
#        161207
#        172771
#        192425
#        205957
#        222062
#        238169
#        252381
#
# Disc length: 3588 seconds
#
# Revision: 1
# Processed by: cddbd v1.5.2PL0 Copyright (c) Steve Scherf et al.
# Submitted via: ExactAudioCopy v1.0b3
#
DISCID=fc0e0211
DTITLE=MoTrip - Embryo
DYEAR=2012
DGENRE=Deutschrap
TTITLE0=Kennen
TTITLE1=King
TTITLE2=Feder im Wind
TTITLE3=Schreiben, schreiben
TTITLE4=Triptheorie - Meine Rhymes and ich (feat. Marsimoto)
TTITLE5=Die Frage ist wann
TTITLE6=Alles was ich wollte
TTITLE7=Tagebuch
TTITLE8=Kanacke mit Grips
TTITLE9=Gorilla (feat. El Moussaoui)
TTITLE10=Kunst
TTITLE11=Albtraum
TTITLE12=Wir
TTITLE13=Kettenreaktion (feat. JokA and Silla)
TTITLE14=Wie die Zeit verrennt
TTITLE15=Embryo
TTITLE16=Intro - Ich fang am Ende an
EXTD=
EXTT0=
EXTT1=
EXTT2=
EXTT3=
EXTT4=
EXTT5=
EXTT6=
EXTT7=
EXTT8=
EXTT9=
EXTT10=
EXTT11=
EXTT12=
EXTT13=
EXTT14=
EXTT15=
EXTT16=
PLAYORDER=
